# xmcd
#
# Track frame offsets: 
#        150
#        24319
#        42927
#        62563
#        82946
#        102739
#        120652
#        137550
#        152214
#        168402
#
# Disc length: 2429 seconds
#
# Revision: 0
# Processed by: cddbd v1.5.2PL0 Copyright (c) Steve Scherf et al.
# Submitted via: ExactAudioCopy v0.99pb5
#
DISCID=7b097b0a
DTITLE=Daniel Carmel - Sailing On faith
DYEAR=1900
DGENRE=Gospel
TTITLE0=The One
TTITLE1=Angus Dei
TTITLE2=Here I Am To Worship
TTITLE3=Who Am I?
TTITLE4=Jerusalem
TTITLE5=How Great Is Our God
TTITLE6=Days Of Elijah
TTITLE7=More Love, More Power
TTITLE8=Breathe
TTITLE9=Yes, He's Coming Soon
EXTD=
EXTT0=
EXTT1=
EXTT2=
EXTT3=
EXTT4=
EXTT5=
EXTT6=
EXTT7=
EXTT8=
EXTT9=
PLAYORDER=
